<svg width="375" height="616" viewBox="0 0 375 616" fill="none" xmlns="http://www.w3.org/2000/svg">
	<path d="M354.201 635.368C348.158 635.368 342.106 633.073 337.485 628.452C313.734 604.691 123.676 414.622 99.9149 390.861C60.0049 350.931 60.0049 285.958 99.9149 246.028C123.726 222.217 314.231 31.731 338.042 7.92021C347.274 -1.31195 362.221 -1.31195 371.463 7.92021C380.696 17.1524 380.696 32.1076 371.463 41.3397C347.643 65.1505 157.145 255.639 133.334 279.449C111.839 300.945 111.839 335.954 133.334 357.439C157.096 381.2 347.165 571.26 370.926 595.021C380.138 604.253 380.138 619.22 370.926 628.452C366.305 633.073 360.253 635.368 354.201 635.368Z" fill="white" stroke="white" stroke-width="24"/>
</svg>
